<svg xmlns="http://www.w3.org/2000/svg" xmlns:xlink="http://www.w3.org/1999/xlink" width="500" zoomAndPan="magnify" viewBox="0 0 375 374.999991" height="500" preserveAspectRatio="xMidYMid meet" version="1.0"><defs><g/><clipPath id="c188ad9c26"><path d="M 76 183.917969 L 299 183.917969 L 299 200.417969 L 76 200.417969 Z M 76 183.917969 " clip-rule="nonzero"/></clipPath></defs><g clip-path="url(#c188ad9c26)"><path fill="#cc0000" d="M 76.449219 194.730469 L 298.550781 194.730469 L 298.550781 200.570312 L 76.449219 200.570312 Z M 76.449219 183.917969 L 298.550781 183.917969 L 298.550781 189.757812 L 76.449219 189.757812 Z M 76.449219 183.917969 " fill-opacity="1" fill-rule="nonzero"/></g><g fill="#cc0000" fill-opacity="1"><g transform="translate(74.420839, 176.639241)"><g><path d="M 35.109375 -3.953125 C 35.085938 -3.722656 35.078125 -3.40625 35.078125 -3 C 35.078125 -2.601562 35.082031 -2.203125 35.09375 -1.796875 C 35.101562 -1.390625 35.109375 -1.035156 35.109375 -0.734375 C 35.109375 -0.441406 35.109375 -0.269531 35.109375 -0.21875 C 35.109375 -0.0390625 34.984375 0.0546875 34.734375 0.078125 L 1.84375 0.078125 C 1.675781 0.078125 1.597656 0.0390625 1.609375 -0.03125 C 1.617188 -0.113281 1.6875 -0.175781 1.8125 -0.21875 C 2.132812 -0.289062 2.347656 -0.429688 2.453125 -0.640625 C 2.566406 -0.847656 2.625 -1.078125 2.625 -1.328125 C 2.625 -1.578125 2.625 -1.820312 2.625 -2.0625 C 2.625 -2.164062 2.625 -2.613281 2.625 -3.40625 C 2.625 -4.207031 2.625 -5.175781 2.625 -6.3125 L 2.625 -19.078125 C 2.625 -19.285156 2.601562 -19.46875 2.5625 -19.625 C 2.519531 -19.789062 2.40625 -19.925781 2.21875 -20.03125 C 2.144531 -20.082031 2.070312 -20.128906 2 -20.171875 C 1.84375 -20.222656 1.769531 -20.289062 1.78125 -20.375 C 1.789062 -20.46875 1.875 -20.515625 2.03125 -20.515625 L 6.828125 -20.515625 C 6.992188 -20.515625 7.070312 -20.46875 7.0625 -20.375 C 7.050781 -20.289062 6.984375 -20.234375 6.859375 -20.203125 C 6.734375 -20.179688 6.625 -20.144531 6.53125 -20.09375 C 6.226562 -19.90625 6.070312 -19.648438 6.0625 -19.328125 C 6.050781 -19.003906 6.046875 -18.6875 6.046875 -18.375 C 6.046875 -18.21875 6.046875 -17.660156 6.046875 -16.703125 L 6.046875 -3.765625 C 6.046875 -3.585938 6.109375 -3.429688 6.234375 -3.296875 C 6.359375 -3.160156 6.519531 -3.09375 6.71875 -3.09375 C 6.914062 -3.09375 7.429688 -3.09375 8.265625 -3.09375 C 9.097656 -3.09375 10.144531 -3.097656 11.40625 -3.109375 C 12.675781 -3.117188 14.070312 -3.128906 15.59375 -3.140625 C 17.125 -3.160156 18.691406 -3.175781 20.296875 -3.1875 C 21.910156 -3.195312 23.472656 -3.203125 24.984375 -3.203125 C 26.503906 -3.210938 27.894531 -3.222656 29.15625 -3.234375 C 30.414062 -3.242188 31.445312 -3.253906 32.25 -3.265625 C 33.050781 -3.273438 33.539062 -3.28125 33.71875 -3.28125 C 33.988281 -3.28125 34.207031 -3.351562 34.375 -3.5 C 34.539062 -3.644531 34.675781 -3.828125 34.78125 -4.046875 C 34.8125 -4.097656 34.835938 -4.148438 34.859375 -4.203125 C 34.878906 -4.253906 34.925781 -4.269531 35 -4.25 C 35.09375 -4.238281 35.128906 -4.140625 35.109375 -3.953125 Z M 35.109375 -3.953125 "/></g></g></g><g fill="#cc0000" fill-opacity="1"><g transform="translate(110.291846, 176.639241)"><g><path d="M 34.5625 -20.5 C 34.726562 -20.5 34.8125 -20.453125 34.8125 -20.359375 C 34.820312 -20.265625 34.757812 -20.191406 34.625 -20.140625 C 34.53125 -20.109375 34.445312 -20.070312 34.375 -20.03125 C 34.195312 -19.90625 34.082031 -19.757812 34.03125 -19.59375 C 33.988281 -19.4375 33.96875 -19.257812 33.96875 -19.0625 L 33.96875 -9.46875 C 33.96875 -8.144531 33.71875 -6.90625 33.21875 -5.75 C 32.726562 -4.59375 32.039062 -3.570312 31.15625 -2.6875 C 30.28125 -1.8125 29.265625 -1.128906 28.109375 -0.640625 C 26.953125 -0.160156 25.71875 0.078125 24.40625 0.078125 L 11.609375 0.078125 C 10.285156 0.078125 9.046875 -0.160156 7.890625 -0.640625 C 6.734375 -1.128906 5.71875 -1.8125 4.84375 -2.6875 C 3.976562 -3.570312 3.296875 -4.585938 2.796875 -5.734375 C 2.304688 -6.878906 2.0625 -8.113281 2.0625 -9.4375 L 2.0625 -19.0625 C 2.039062 -19.257812 2.003906 -19.4375 1.953125 -19.59375 C 1.910156 -19.757812 1.800781 -19.90625 1.625 -20.03125 C 1.570312 -20.070312 1.5 -20.109375 1.40625 -20.140625 C 1.257812 -20.191406 1.1875 -20.265625 1.1875 -20.359375 C 1.1875 -20.453125 1.269531 -20.5 1.4375 -20.5 L 6.265625 -20.5 C 6.421875 -20.5 6.488281 -20.453125 6.46875 -20.359375 C 6.457031 -20.265625 6.390625 -20.210938 6.265625 -20.203125 C 6.140625 -20.160156 6.039062 -20.113281 5.96875 -20.0625 C 5.65625 -19.894531 5.488281 -19.644531 5.46875 -19.3125 C 5.457031 -18.976562 5.453125 -18.660156 5.453125 -18.359375 C 5.453125 -18.285156 5.453125 -18.101562 5.453125 -17.8125 C 5.453125 -17.519531 5.453125 -17.140625 5.453125 -16.671875 L 5.453125 -9.4375 C 5.460938 -8.28125 5.75 -7.226562 6.3125 -6.28125 C 6.875 -5.332031 7.628906 -4.578125 8.578125 -4.015625 C 9.523438 -3.453125 10.578125 -3.171875 11.734375 -3.171875 C 12.765625 -3.171875 13.816406 -3.171875 14.890625 -3.171875 C 15.972656 -3.171875 17.035156 -3.160156 18.078125 -3.140625 C 19.109375 -3.160156 20.148438 -3.171875 21.203125 -3.171875 C 22.265625 -3.171875 23.300781 -3.179688 24.3125 -3.203125 C 25.457031 -3.203125 26.5 -3.484375 27.4375 -4.046875 C 28.375 -4.617188 29.125 -5.375 29.6875 -6.3125 C 30.257812 -7.25 30.546875 -8.289062 30.546875 -9.4375 L 30.546875 -16.671875 C 30.546875 -17.140625 30.546875 -17.519531 30.546875 -17.8125 C 30.546875 -18.101562 30.546875 -18.285156 30.546875 -18.359375 C 30.546875 -18.660156 30.539062 -18.976562 30.53125 -19.3125 C 30.53125 -19.644531 30.375 -19.894531 30.0625 -20.0625 C 29.96875 -20.113281 29.859375 -20.160156 29.734375 -20.203125 C 29.609375 -20.210938 29.539062 -20.265625 29.53125 -20.359375 C 29.519531 -20.453125 29.597656 -20.5 29.765625 -20.5 Z M 34.5625 -20.5 "/></g></g></g><g fill="#cc0000" fill-opacity="1"><g transform="translate(146.406875, 176.639241)"><g><path d="M 38.21875 -14.9375 C 38.382812 -14.863281 38.445312 -14.773438 38.40625 -14.671875 C 38.375 -14.535156 38.273438 -14.46875 38.109375 -14.46875 C 38.003906 -14.46875 37.789062 -14.46875 37.46875 -14.46875 C 37.144531 -14.46875 36.78125 -14.46875 36.375 -14.46875 C 35.976562 -14.46875 35.601562 -14.46875 35.25 -14.46875 C 34.90625 -14.46875 34.628906 -14.46875 34.421875 -14.46875 C 34.316406 -14.46875 34.234375 -14.476562 34.171875 -14.5 C 34.109375 -14.519531 34.066406 -14.582031 34.046875 -14.6875 C 34.023438 -14.800781 34.050781 -14.863281 34.125 -14.875 C 34.195312 -14.894531 34.265625 -14.925781 34.328125 -14.96875 C 34.554688 -15.050781 34.707031 -15.21875 34.78125 -15.46875 C 34.851562 -15.726562 34.835938 -16.003906 34.734375 -16.296875 C 34.566406 -16.722656 34.351562 -17.023438 34.09375 -17.203125 C 33.832031 -17.390625 33.472656 -17.503906 33.015625 -17.546875 C 32.796875 -17.546875 32.3125 -17.546875 31.5625 -17.546875 C 30.8125 -17.546875 29.867188 -17.546875 28.734375 -17.546875 C 27.597656 -17.546875 26.34375 -17.546875 24.96875 -17.546875 C 23.59375 -17.546875 22.175781 -17.546875 20.71875 -17.546875 C 19.269531 -17.546875 17.847656 -17.546875 16.453125 -17.546875 C 15.066406 -17.546875 13.789062 -17.546875 12.625 -17.546875 C 11.457031 -17.546875 10.46875 -17.546875 9.65625 -17.546875 C 8.851562 -17.554688 8.316406 -17.5625 8.046875 -17.5625 C 7.796875 -17.5625 7.539062 -17.554688 7.28125 -17.546875 C 7.019531 -17.546875 6.757812 -17.507812 6.5 -17.4375 C 6.21875 -17.363281 6.082031 -17.191406 6.09375 -16.921875 C 6.113281 -16.578125 6.40625 -16.234375 6.96875 -15.890625 C 7.53125 -15.554688 8.28125 -15.25 9.21875 -14.96875 C 10.820312 -14.507812 12.515625 -14.0625 14.296875 -13.625 C 16.078125 -13.195312 17.859375 -12.785156 19.640625 -12.390625 C 21.421875 -11.992188 23.140625 -11.601562 24.796875 -11.21875 C 26.460938 -10.84375 27.992188 -10.46875 29.390625 -10.09375 C 30.796875 -9.726562 32.003906 -9.367188 33.015625 -9.015625 C 34.023438 -8.660156 34.769531 -8.3125 35.25 -7.96875 C 35.519531 -7.789062 35.773438 -7.597656 36.015625 -7.390625 C 36.253906 -7.179688 36.484375 -6.953125 36.703125 -6.703125 C 36.847656 -6.535156 36.972656 -6.363281 37.078125 -6.1875 C 37.460938 -5.570312 37.695312 -4.9375 37.78125 -4.28125 C 37.875 -3.632812 37.882812 -2.972656 37.8125 -2.296875 C 37.726562 -1.671875 37.5 -1.179688 37.125 -0.828125 C 36.757812 -0.472656 36.285156 -0.210938 35.703125 -0.046875 C 35.328125 0.0351562 34.96875 0.078125 34.625 0.078125 C 34.351562 0.078125 33.769531 0.078125 32.875 0.078125 C 31.976562 0.078125 30.863281 0.078125 29.53125 0.078125 C 28.207031 0.078125 26.757812 0.078125 25.1875 0.078125 C 23.613281 0.078125 22.003906 0.078125 20.359375 0.078125 C 18.710938 0.078125 17.117188 0.0820312 15.578125 0.09375 C 14.046875 0.101562 12.65625 0.109375 11.40625 0.109375 C 10.164062 0.109375 9.15625 0.109375 8.375 0.109375 C 7.601562 0.109375 7.160156 0.109375 7.046875 0.109375 C 5.890625 0.109375 4.910156 -0.128906 4.109375 -0.609375 C 3.316406 -1.085938 2.75 -1.707031 2.40625 -2.46875 C 2.269531 -2.789062 2.179688 -3.160156 2.140625 -3.578125 C 2.109375 -3.992188 2.082031 -4.375 2.0625 -4.71875 C 2.039062 -5.0625 1.984375 -5.28125 1.890625 -5.375 C 1.785156 -5.507812 1.648438 -5.601562 1.484375 -5.65625 C 1.328125 -5.71875 1.25 -5.800781 1.25 -5.90625 C 1.25 -6.03125 1.359375 -6.101562 1.578125 -6.125 L 5.5 -6.125 C 5.570312 -6.125 5.671875 -6.117188 5.796875 -6.109375 C 5.921875 -6.097656 5.992188 -6.050781 6.015625 -5.96875 C 6.035156 -5.851562 5.992188 -5.769531 5.890625 -5.71875 C 5.796875 -5.664062 5.722656 -5.628906 5.671875 -5.609375 C 5.398438 -5.484375 5.238281 -5.316406 5.1875 -5.109375 C 5.144531 -4.898438 5.171875 -4.613281 5.265625 -4.25 C 5.367188 -3.832031 5.5625 -3.53125 5.84375 -3.34375 C 6.125 -3.15625 6.488281 -3.046875 6.9375 -3.015625 C 7.0625 -3.015625 7.523438 -3.007812 8.328125 -3 C 9.140625 -2.988281 10.175781 -2.984375 11.4375 -2.984375 C 12.707031 -2.984375 14.117188 -2.984375 15.671875 -2.984375 C 17.222656 -2.984375 18.816406 -2.984375 20.453125 -2.984375 C 22.085938 -2.984375 23.671875 -2.988281 25.203125 -3 C 26.742188 -3.007812 28.132812 -3.015625 29.375 -3.015625 C 30.613281 -3.023438 31.609375 -3.035156 32.359375 -3.046875 C 33.117188 -3.054688 33.53125 -3.070312 33.59375 -3.09375 C 33.84375 -3.164062 34 -3.300781 34.0625 -3.5 C 34.125 -3.695312 34.09375 -3.894531 33.96875 -4.09375 C 33.675781 -4.53125 33.328125 -4.882812 32.921875 -5.15625 C 32.515625 -5.425781 32.085938 -5.664062 31.640625 -5.875 C 30.910156 -6.21875 29.929688 -6.5625 28.703125 -6.90625 C 27.472656 -7.25 26.082031 -7.601562 24.53125 -7.96875 C 22.976562 -8.332031 21.335938 -8.703125 19.609375 -9.078125 C 17.890625 -9.460938 16.171875 -9.851562 14.453125 -10.25 C 12.734375 -10.644531 11.109375 -11.050781 9.578125 -11.46875 C 8.054688 -11.882812 6.707031 -12.316406 5.53125 -12.765625 C 5.164062 -12.910156 4.8125 -13.082031 4.46875 -13.28125 C 4.125 -13.476562 3.800781 -13.707031 3.5 -13.96875 C 3.0625 -14.320312 2.769531 -14.664062 2.625 -15 C 2.476562 -15.332031 2.363281 -15.765625 2.28125 -16.296875 C 2.207031 -16.710938 2.191406 -17.171875 2.234375 -17.671875 C 2.273438 -18.179688 2.390625 -18.632812 2.578125 -19.03125 C 2.847656 -19.625 3.328125 -20.054688 4.015625 -20.328125 C 4.585938 -20.566406 5.164062 -20.671875 5.75 -20.640625 C 6.34375 -20.617188 6.9375 -20.613281 7.53125 -20.625 L 33.484375 -20.625 C 34.222656 -20.644531 34.914062 -20.457031 35.5625 -20.0625 C 36.21875 -19.675781 36.71875 -19.148438 37.0625 -18.484375 C 37.289062 -18.015625 37.453125 -17.539062 37.546875 -17.0625 C 37.648438 -16.582031 37.703125 -16.164062 37.703125 -15.8125 C 37.691406 -15.570312 37.722656 -15.390625 37.796875 -15.265625 C 37.867188 -15.140625 38.007812 -15.03125 38.21875 -14.9375 Z M 38.21875 -14.9375 "/></g></g></g><g fill="#cc0000" fill-opacity="1"><g transform="translate(186.127982, 176.639241)"><g><path d="M 36.671875 -19.625 C 36.671875 -19.394531 36.671875 -19.082031 36.671875 -18.6875 C 36.671875 -18.300781 36.671875 -17.890625 36.671875 -17.453125 C 36.671875 -17.023438 36.675781 -16.640625 36.6875 -16.296875 C 36.695312 -15.953125 36.703125 -15.722656 36.703125 -15.609375 C 36.703125 -15.523438 36.660156 -15.484375 36.578125 -15.484375 C 36.503906 -15.484375 36.46875 -15.535156 36.46875 -15.640625 C 36.394531 -16.078125 36.21875 -16.351562 35.9375 -16.46875 C 35.65625 -16.582031 35.34375 -16.648438 35 -16.671875 C 34.757812 -16.671875 34.378906 -16.671875 33.859375 -16.671875 C 33.335938 -16.671875 32.738281 -16.671875 32.0625 -16.671875 C 31.394531 -16.671875 30.71875 -16.671875 30.03125 -16.671875 C 29.34375 -16.671875 28.710938 -16.664062 28.140625 -16.65625 C 27.578125 -16.644531 27.144531 -16.640625 26.84375 -16.640625 C 26.375 -16.640625 26.140625 -16.414062 26.140625 -15.96875 C 26.140625 -15.84375 26.140625 -15.492188 26.140625 -14.921875 C 26.140625 -14.347656 26.140625 -13.632812 26.140625 -12.78125 C 26.140625 -11.9375 26.140625 -11.023438 26.140625 -10.046875 C 26.140625 -9.078125 26.140625 -8.109375 26.140625 -7.140625 C 26.140625 -6.171875 26.140625 -5.28125 26.140625 -4.46875 C 26.140625 -3.65625 26.140625 -2.992188 26.140625 -2.484375 C 26.140625 -1.984375 26.140625 -1.707031 26.140625 -1.65625 C 26.140625 -1.414062 26.1875 -1.175781 26.28125 -0.9375 C 26.382812 -0.707031 26.5625 -0.539062 26.8125 -0.4375 C 26.882812 -0.382812 26.96875 -0.347656 27.0625 -0.328125 C 27.164062 -0.304688 27.195312 -0.242188 27.15625 -0.140625 C 27.125 -0.046875 27.0625 -0.00390625 26.96875 -0.015625 C 26.882812 -0.0234375 26.796875 -0.03125 26.703125 -0.03125 C 26.453125 -0.03125 26.097656 -0.03125 25.640625 -0.03125 C 25.191406 -0.03125 24.71875 -0.03125 24.21875 -0.03125 C 23.726562 -0.03125 23.285156 -0.03125 22.890625 -0.03125 C 22.503906 -0.03125 22.253906 -0.0195312 22.140625 0 C 22.078125 0 22.007812 -0.00390625 21.9375 -0.015625 C 21.863281 -0.0234375 21.816406 -0.0664062 21.796875 -0.140625 C 21.773438 -0.210938 21.796875 -0.265625 21.859375 -0.296875 C 21.921875 -0.335938 21.972656 -0.363281 22.015625 -0.375 C 22.378906 -0.539062 22.59375 -0.710938 22.65625 -0.890625 C 22.71875 -1.078125 22.75 -1.347656 22.75 -1.703125 C 22.75 -1.828125 22.75 -2.171875 22.75 -2.734375 C 22.75 -3.296875 22.75 -3.992188 22.75 -4.828125 C 22.75 -5.671875 22.75 -6.582031 22.75 -7.5625 C 22.75 -8.539062 22.75 -9.515625 22.75 -10.484375 C 22.75 -11.460938 22.75 -12.367188 22.75 -13.203125 C 22.75 -14.035156 22.742188 -14.71875 22.734375 -15.25 C 22.722656 -15.78125 22.71875 -16.082031 22.71875 -16.15625 C 22.675781 -16.476562 22.492188 -16.648438 22.171875 -16.671875 C 22.097656 -16.671875 21.769531 -16.671875 21.1875 -16.671875 C 20.613281 -16.671875 19.863281 -16.671875 18.9375 -16.671875 C 18.019531 -16.671875 16.992188 -16.671875 15.859375 -16.671875 C 14.734375 -16.671875 13.570312 -16.671875 12.375 -16.671875 C 11.1875 -16.671875 10.03125 -16.671875 8.90625 -16.671875 C 7.78125 -16.671875 6.765625 -16.671875 5.859375 -16.671875 C 4.953125 -16.671875 4.222656 -16.671875 3.671875 -16.671875 C 3.117188 -16.671875 2.828125 -16.671875 2.796875 -16.671875 C 2.429688 -16.691406 2.148438 -16.632812 1.953125 -16.5 C 1.753906 -16.363281 1.597656 -16.113281 1.484375 -15.75 C 1.484375 -15.71875 1.472656 -15.675781 1.453125 -15.625 C 1.441406 -15.582031 1.414062 -15.5625 1.375 -15.5625 C 1.3125 -15.5625 1.28125 -15.632812 1.28125 -15.78125 C 1.257812 -16.375 1.25 -16.972656 1.25 -17.578125 C 1.25 -18.179688 1.25 -18.789062 1.25 -19.40625 C 1.25 -19.695312 1.285156 -19.878906 1.359375 -19.953125 C 1.429688 -20.023438 1.609375 -20.0625 1.890625 -20.0625 C 2.054688 -20.0625 2.554688 -20.0625 3.390625 -20.0625 C 4.234375 -20.0625 5.328125 -20.0625 6.671875 -20.0625 C 8.023438 -20.0625 9.539062 -20.0625 11.21875 -20.0625 C 12.90625 -20.0625 14.671875 -20.0625 16.515625 -20.0625 C 18.359375 -20.0625 20.195312 -20.0625 22.03125 -20.0625 C 23.863281 -20.0625 25.601562 -20.0625 27.25 -20.0625 C 28.90625 -20.0625 30.394531 -20.0625 31.71875 -20.0625 C 33.039062 -20.0625 34.097656 -20.0625 34.890625 -20.0625 C 35.679688 -20.0625 36.132812 -20.0625 36.25 -20.0625 C 36.53125 -20.0625 36.671875 -19.914062 36.671875 -19.625 Z M 36.671875 -19.625 "/></g></g></g><g fill="#cc0000" fill-opacity="1"><g transform="translate(224.113832, 176.639241)"><g><path d="M 35.859375 -0.140625 C 35.898438 -0.117188 35.945312 -0.0859375 36 -0.046875 C 36.050781 -0.015625 36.070312 0.0234375 36.0625 0.078125 C 36.039062 0.128906 35.992188 0.164062 35.921875 0.1875 C 35.847656 0.207031 35.785156 0.21875 35.734375 0.21875 C 35.515625 0.21875 35.296875 0.210938 35.078125 0.203125 C 34.859375 0.191406 34.640625 0.1875 34.421875 0.1875 C 33.878906 0.1875 33.335938 0.1875 32.796875 0.1875 C 32.253906 0.1875 31.710938 0.1875 31.171875 0.1875 C 31.117188 0.1875 31.0625 0.1875 31 0.1875 C 30.9375 0.1875 30.894531 0.160156 30.875 0.109375 C 30.851562 0.0351562 30.875 -0.0078125 30.9375 -0.03125 C 31.007812 -0.0625 31.0625 -0.0976562 31.09375 -0.140625 C 31.4375 -0.316406 31.519531 -0.585938 31.34375 -0.953125 C 31.175781 -1.222656 30.921875 -1.546875 30.578125 -1.921875 C 30.234375 -2.304688 29.867188 -2.671875 29.484375 -3.015625 C 29.109375 -3.359375 28.8125 -3.632812 28.59375 -3.84375 C 28.59375 -3.84375 28.421875 -3.984375 28.078125 -4.265625 C 27.734375 -4.546875 27.289062 -4.890625 26.75 -5.296875 C 26.207031 -5.703125 25.613281 -6.117188 24.96875 -6.546875 C 24.332031 -6.972656 23.707031 -7.328125 23.09375 -7.609375 C 22.476562 -7.898438 21.945312 -8.046875 21.5 -8.046875 C 21.113281 -8.066406 20.492188 -8.082031 19.640625 -8.09375 C 18.796875 -8.101562 17.820312 -8.113281 16.71875 -8.125 C 15.625 -8.132812 14.5 -8.140625 13.34375 -8.140625 C 12.195312 -8.140625 11.128906 -8.140625 10.140625 -8.140625 C 9.160156 -8.148438 8.359375 -8.15625 7.734375 -8.15625 C 7.109375 -8.15625 6.769531 -8.15625 6.71875 -8.15625 C 6.320312 -8.175781 6.03125 -8.101562 5.84375 -7.9375 C 5.65625 -7.78125 5.550781 -7.503906 5.53125 -7.109375 C 5.507812 -6.816406 5.492188 -6.425781 5.484375 -5.9375 C 5.472656 -5.445312 5.46875 -4.925781 5.46875 -4.375 C 5.46875 -3.820312 5.46875 -3.285156 5.46875 -2.765625 C 5.46875 -2.242188 5.460938 -1.8125 5.453125 -1.46875 C 5.429688 -1.15625 5.5 -0.898438 5.65625 -0.703125 C 5.820312 -0.503906 6.039062 -0.351562 6.3125 -0.25 C 6.425781 -0.207031 6.488281 -0.140625 6.5 -0.046875 C 6.519531 0.0351562 6.457031 0.078125 6.3125 0.078125 C 6.15625 0.078125 5.867188 0.078125 5.453125 0.078125 C 5.035156 0.078125 4.5625 0.0703125 4.03125 0.0625 C 3.507812 0.0507812 3.019531 0.046875 2.5625 0.046875 C 2.101562 0.046875 1.753906 0.0546875 1.515625 0.078125 C 1.367188 0.0976562 1.273438 0.0664062 1.234375 -0.015625 C 1.203125 -0.109375 1.28125 -0.191406 1.46875 -0.265625 C 1.789062 -0.390625 1.992188 -0.570312 2.078125 -0.8125 C 2.160156 -1.050781 2.203125 -1.320312 2.203125 -1.625 C 2.203125 -1.625 2.203125 -1.929688 2.203125 -2.546875 C 2.203125 -3.160156 2.203125 -3.976562 2.203125 -5 C 2.210938 -6.019531 2.21875 -7.144531 2.21875 -8.375 C 2.21875 -9.601562 2.21875 -10.835938 2.21875 -12.078125 C 2.21875 -13.316406 2.210938 -14.460938 2.203125 -15.515625 C 2.203125 -16.578125 2.203125 -17.445312 2.203125 -18.125 C 2.203125 -18.800781 2.203125 -19.175781 2.203125 -19.25 C 2.179688 -19.539062 2.109375 -19.789062 1.984375 -20 C 1.859375 -20.21875 1.664062 -20.390625 1.40625 -20.515625 C 1.375 -20.535156 1.335938 -20.550781 1.296875 -20.5625 C 1.265625 -20.570312 1.25 -20.601562 1.25 -20.65625 C 1.269531 -20.75 1.34375 -20.796875 1.46875 -20.796875 C 1.84375 -20.796875 2.207031 -20.796875 2.5625 -20.796875 C 2.914062 -20.796875 3.304688 -20.796875 3.734375 -20.796875 L 32.09375 -20.796875 C 32.632812 -20.796875 33.128906 -20.691406 33.578125 -20.484375 C 34.035156 -20.273438 34.425781 -19.9375 34.75 -19.46875 C 34.945312 -19.195312 35.066406 -18.910156 35.109375 -18.609375 C 35.160156 -18.304688 35.195312 -17.992188 35.21875 -17.671875 C 35.269531 -17.097656 35.203125 -16.546875 35.015625 -16.015625 C 34.835938 -15.492188 34.578125 -15.007812 34.234375 -14.5625 C 33.984375 -14.21875 33.703125 -13.894531 33.390625 -13.59375 C 33.085938 -13.289062 32.753906 -13.003906 32.390625 -12.734375 C 31.898438 -12.335938 31.398438 -11.957031 30.890625 -11.59375 C 30.378906 -11.238281 29.832031 -10.925781 29.25 -10.65625 C 28.957031 -10.507812 28.65625 -10.375 28.34375 -10.25 C 28.039062 -10.125 27.738281 -9.988281 27.4375 -9.84375 C 27.320312 -9.800781 27.195312 -9.757812 27.0625 -9.71875 C 26.925781 -9.6875 26.859375 -9.601562 26.859375 -9.46875 C 26.859375 -9.300781 26.941406 -9.175781 27.109375 -9.09375 C 27.285156 -9.007812 27.582031 -8.816406 28 -8.515625 C 29.144531 -7.679688 30.171875 -6.828125 31.078125 -5.953125 C 31.992188 -5.085938 32.722656 -4.367188 33.265625 -3.796875 C 33.910156 -3.109375 34.441406 -2.335938 34.859375 -1.484375 C 34.953125 -1.304688 35.035156 -1.132812 35.109375 -0.96875 C 35.265625 -0.664062 35.515625 -0.390625 35.859375 -0.140625 Z M 6.796875 -11.71875 C 7.003906 -11.695312 7.492188 -11.660156 8.265625 -11.609375 C 9.046875 -11.566406 10.019531 -11.519531 11.1875 -11.46875 C 12.363281 -11.425781 13.625 -11.398438 14.96875 -11.390625 C 16.320312 -11.390625 17.671875 -11.414062 19.015625 -11.46875 C 20.359375 -11.519531 21.597656 -11.613281 22.734375 -11.75 C 23.878906 -11.882812 24.804688 -12.085938 25.515625 -12.359375 C 25.710938 -12.410156 26.035156 -12.519531 26.484375 -12.6875 C 26.929688 -12.863281 27.441406 -13.097656 28.015625 -13.390625 C 28.585938 -13.679688 29.144531 -14.03125 29.6875 -14.4375 C 30.226562 -14.84375 30.6875 -15.328125 31.0625 -15.890625 C 31.175781 -16.015625 31.285156 -16.203125 31.390625 -16.453125 C 31.503906 -16.703125 31.503906 -16.929688 31.390625 -17.140625 C 31.296875 -17.347656 31.160156 -17.46875 30.984375 -17.5 C 30.816406 -17.539062 30.644531 -17.570312 30.46875 -17.59375 C 30.445312 -17.59375 30.429688 -17.59375 30.421875 -17.59375 C 30.421875 -17.59375 30.410156 -17.59375 30.390625 -17.59375 C 30.046875 -17.625 29.703125 -17.632812 29.359375 -17.625 C 29.015625 -17.625 28.671875 -17.625 28.328125 -17.625 C 27.316406 -17.601562 26.304688 -17.597656 25.296875 -17.609375 C 24.285156 -17.617188 23.269531 -17.625 22.25 -17.625 C 20.132812 -17.601562 18.019531 -17.597656 15.90625 -17.609375 C 13.789062 -17.617188 11.6875 -17.601562 9.59375 -17.5625 C 9.070312 -17.550781 8.546875 -17.550781 8.015625 -17.5625 C 7.484375 -17.582031 6.953125 -17.566406 6.421875 -17.515625 C 6.191406 -17.492188 6 -17.398438 5.84375 -17.234375 C 5.6875 -17.078125 5.597656 -16.890625 5.578125 -16.671875 C 5.578125 -16.566406 5.570312 -16.320312 5.5625 -15.9375 C 5.5625 -15.5625 5.5625 -15.144531 5.5625 -14.6875 C 5.5625 -14.238281 5.5625 -13.832031 5.5625 -13.46875 C 5.5625 -13.113281 5.5625 -12.898438 5.5625 -12.828125 C 5.5625 -12.734375 5.5625 -12.625 5.5625 -12.5 C 5.570312 -12.375 5.648438 -12.238281 5.796875 -12.09375 C 5.941406 -11.96875 6.09375 -11.875 6.25 -11.8125 C 6.414062 -11.757812 6.597656 -11.726562 6.796875 -11.71875 Z M 6.796875 -11.71875 "/></g></g></g><g fill="#cc0000" fill-opacity="1"><g transform="translate(261.476075, 176.639241)"><g><path d="M 38.71875 -0.375 C 38.820312 -0.320312 38.878906 -0.238281 38.890625 -0.125 C 38.898438 -0.0078125 38.8125 0.046875 38.625 0.046875 C 38.476562 0.046875 38.164062 0.046875 37.6875 0.046875 C 37.21875 0.046875 36.664062 0.046875 36.03125 0.046875 C 35.394531 0.046875 34.769531 0.046875 34.15625 0.046875 C 33.539062 0.046875 33.007812 0.046875 32.5625 0.046875 C 32.125 0.046875 31.859375 0.046875 31.765625 0.046875 C 31.660156 0.046875 31.582031 -0.0078125 31.53125 -0.125 C 31.488281 -0.238281 31.566406 -0.34375 31.765625 -0.4375 C 31.828125 -0.445312 31.890625 -0.460938 31.953125 -0.484375 C 32.015625 -0.503906 32.070312 -0.53125 32.125 -0.5625 C 32.46875 -0.707031 32.550781 -0.972656 32.375 -1.359375 C 32.3125 -1.484375 32.195312 -1.671875 32.03125 -1.921875 C 31.875 -2.171875 31.546875 -2.503906 31.046875 -2.921875 C 30.554688 -3.335938 29.773438 -3.847656 28.703125 -4.453125 C 27.097656 -5.273438 25.523438 -5.929688 23.984375 -6.421875 C 22.453125 -6.910156 21.003906 -7.28125 19.640625 -7.53125 C 18.273438 -7.789062 17.050781 -7.957031 15.96875 -8.03125 C 14.882812 -8.113281 14 -8.164062 13.3125 -8.1875 C 12.988281 -8.1875 12.601562 -8.035156 12.15625 -7.734375 C 11.71875 -7.441406 11.257812 -7.050781 10.78125 -6.5625 C 10.300781 -6.070312 9.828125 -5.550781 9.359375 -5 C 8.898438 -4.445312 8.476562 -3.914062 8.09375 -3.40625 C 7.71875 -2.90625 7.40625 -2.476562 7.15625 -2.125 C 6.914062 -1.769531 6.78125 -1.566406 6.75 -1.515625 C 6.5 -1.171875 6.535156 -0.890625 6.859375 -0.671875 C 6.960938 -0.617188 7.066406 -0.566406 7.171875 -0.515625 C 7.285156 -0.472656 7.398438 -0.4375 7.515625 -0.40625 C 7.691406 -0.351562 7.773438 -0.265625 7.765625 -0.140625 C 7.753906 -0.015625 7.660156 0.046875 7.484375 0.046875 C 7.390625 0.046875 7.09375 0.046875 6.59375 0.046875 C 6.101562 0.046875 5.519531 0.046875 4.84375 0.046875 C 4.164062 0.046875 3.488281 0.046875 2.8125 0.046875 C 2.144531 0.046875 1.578125 0.046875 1.109375 0.046875 C 0.640625 0.046875 0.390625 0.046875 0.359375 0.046875 C 0.242188 0.046875 0.175781 -0.03125 0.15625 -0.1875 C 0.144531 -0.351562 0.28125 -0.460938 0.5625 -0.515625 C 1.019531 -0.617188 1.4375 -0.769531 1.8125 -0.96875 C 2.195312 -1.175781 2.53125 -1.441406 2.8125 -1.765625 C 2.882812 -1.847656 3.140625 -2.160156 3.578125 -2.703125 C 4.015625 -3.253906 4.570312 -3.957031 5.25 -4.8125 C 5.925781 -5.664062 6.675781 -6.617188 7.5 -7.671875 C 8.320312 -8.722656 9.164062 -9.796875 10.03125 -10.890625 C 10.894531 -11.992188 11.734375 -13.0625 12.546875 -14.09375 C 13.359375 -15.125 14.085938 -16.054688 14.734375 -16.890625 C 15.378906 -17.722656 15.894531 -18.390625 16.28125 -18.890625 C 16.664062 -19.398438 16.867188 -19.671875 16.890625 -19.703125 C 16.960938 -19.890625 16.945312 -20.019531 16.84375 -20.09375 C 16.75 -20.175781 16.640625 -20.238281 16.515625 -20.28125 C 16.347656 -20.332031 16.273438 -20.414062 16.296875 -20.53125 C 16.328125 -20.65625 16.390625 -20.71875 16.484375 -20.71875 C 16.578125 -20.71875 16.828125 -20.71875 17.234375 -20.71875 C 17.640625 -20.71875 18.117188 -20.71875 18.671875 -20.71875 C 19.234375 -20.71875 19.800781 -20.71875 20.375 -20.71875 C 20.957031 -20.71875 21.460938 -20.71875 21.890625 -20.71875 C 22.316406 -20.71875 22.582031 -20.71875 22.6875 -20.71875 C 22.832031 -20.71875 22.90625 -20.648438 22.90625 -20.515625 C 22.90625 -20.390625 22.820312 -20.320312 22.65625 -20.3125 C 22.3125 -20.25 22.1875 -20.054688 22.28125 -19.734375 C 22.375 -19.535156 22.640625 -19.117188 23.078125 -18.484375 C 23.523438 -17.859375 24.101562 -17.085938 24.8125 -16.171875 C 25.53125 -15.253906 26.320312 -14.253906 27.1875 -13.171875 C 28.050781 -12.085938 28.953125 -10.976562 29.890625 -9.84375 C 30.835938 -8.71875 31.769531 -7.617188 32.6875 -6.546875 C 33.613281 -5.472656 34.476562 -4.492188 35.28125 -3.609375 C 36.082031 -2.734375 36.78125 -2.003906 37.375 -1.421875 C 37.976562 -0.847656 38.425781 -0.5 38.71875 -0.375 Z M 25.515625 -9.515625 C 25.597656 -9.515625 25.648438 -9.566406 25.671875 -9.671875 C 25.691406 -9.785156 25.65625 -9.878906 25.5625 -9.953125 C 25.507812 -10.054688 25.453125 -10.148438 25.390625 -10.234375 C 25.328125 -10.316406 25.257812 -10.394531 25.1875 -10.46875 C 25.019531 -10.625 24.863281 -10.785156 24.71875 -10.953125 C 24.570312 -11.128906 24.4375 -11.300781 24.3125 -11.46875 C 24.03125 -11.84375 23.738281 -12.210938 23.4375 -12.578125 C 23.132812 -12.941406 22.832031 -13.296875 22.53125 -13.640625 C 22.289062 -13.921875 22.046875 -14.210938 21.796875 -14.515625 C 21.554688 -14.828125 21.3125 -15.117188 21.0625 -15.390625 C 20.863281 -15.609375 20.675781 -15.832031 20.5 -16.0625 C 20.332031 -16.289062 20.160156 -16.519531 19.984375 -16.75 C 19.710938 -17.0625 19.445312 -17.050781 19.1875 -16.71875 C 18.914062 -16.394531 18.644531 -16.0625 18.375 -15.71875 C 18.101562 -15.375 17.828125 -15.039062 17.546875 -14.71875 C 17.234375 -14.351562 16.929688 -13.984375 16.640625 -13.609375 C 16.359375 -13.242188 16.050781 -12.898438 15.71875 -12.578125 C 15.664062 -12.503906 15.613281 -12.425781 15.5625 -12.34375 C 15.507812 -12.257812 15.472656 -12.175781 15.453125 -12.09375 C 15.503906 -11.78125 15.628906 -11.609375 15.828125 -11.578125 C 15.972656 -11.578125 16.296875 -11.519531 16.796875 -11.40625 C 17.296875 -11.300781 17.894531 -11.164062 18.59375 -11 C 19.300781 -10.84375 20.035156 -10.675781 20.796875 -10.5 C 21.554688 -10.332031 22.273438 -10.171875 22.953125 -10.015625 C 23.640625 -9.859375 24.210938 -9.734375 24.671875 -9.640625 C 25.140625 -9.554688 25.421875 -9.515625 25.515625 -9.515625 Z M 25.515625 -9.515625 "/></g></g></g><g fill="#e67373" fill-opacity="1"><g transform="translate(98.041134, 216.183751)"><g><path d="M 3.703125 0.1875 C 2.972656 0.1875 2.3125 0.0351562 1.71875 -0.265625 C 1.125 -0.566406 0.613281 -1.03125 0.1875 -1.65625 L 1.109375 -2.359375 C 1.410156 -1.878906 1.785156 -1.507812 2.234375 -1.25 C 2.691406 -0.988281 3.21875 -0.859375 3.8125 -0.859375 C 4.125 -0.859375 4.421875 -0.90625 4.703125 -1 C 4.984375 -1.101562 5.222656 -1.238281 5.421875 -1.40625 C 5.617188 -1.570312 5.773438 -1.78125 5.890625 -2.03125 C 6.003906 -2.28125 6.0625 -2.550781 6.0625 -2.84375 C 6.0625 -3.226562 5.941406 -3.550781 5.703125 -3.8125 C 5.460938 -4.070312 5.144531 -4.328125 4.75 -4.578125 L 3.53125 -5.3125 C 3.082031 -5.59375 2.703125 -5.921875 2.390625 -6.296875 C 2.078125 -6.679688 1.921875 -7.175781 1.921875 -7.78125 C 1.921875 -8.175781 2.003906 -8.546875 2.171875 -8.890625 C 2.335938 -9.242188 2.5625 -9.550781 2.84375 -9.8125 C 3.132812 -10.082031 3.476562 -10.296875 3.875 -10.453125 C 4.28125 -10.609375 4.71875 -10.6875 5.1875 -10.6875 C 5.8125 -10.6875 6.378906 -10.546875 6.890625 -10.265625 C 7.398438 -9.992188 7.820312 -9.644531 8.15625 -9.21875 L 7.34375 -8.484375 C 7.0625 -8.796875 6.738281 -9.0625 6.375 -9.28125 C 6.007812 -9.5 5.582031 -9.609375 5.09375 -9.609375 C 4.789062 -9.609375 4.519531 -9.5625 4.28125 -9.46875 C 4.050781 -9.375 3.851562 -9.242188 3.6875 -9.078125 C 3.519531 -8.921875 3.394531 -8.738281 3.3125 -8.53125 C 3.226562 -8.332031 3.1875 -8.128906 3.1875 -7.921875 C 3.1875 -7.515625 3.316406 -7.1875 3.578125 -6.9375 C 3.835938 -6.6875 4.160156 -6.441406 4.546875 -6.203125 L 5.765625 -5.484375 C 6.273438 -5.191406 6.664062 -4.851562 6.9375 -4.46875 C 7.207031 -4.09375 7.34375 -3.613281 7.34375 -3.03125 C 7.34375 -2.550781 7.25 -2.113281 7.0625 -1.71875 C 6.882812 -1.332031 6.632812 -0.992188 6.3125 -0.703125 C 6 -0.421875 5.617188 -0.203125 5.171875 -0.046875 C 4.722656 0.109375 4.234375 0.1875 3.703125 0.1875 Z M 3.703125 0.1875 "/></g></g></g><g fill="#e67373" fill-opacity="1"><g transform="translate(107.015187, 216.183751)"><g><path d="M 0.5625 0 L 2.65625 -10.5 L 3.90625 -10.5 L 3.015625 -6.0625 L 7.75 -6.0625 L 8.640625 -10.5 L 9.875 -10.5 L 7.78125 0 L 6.53125 0 L 7.53125 -4.984375 L 2.796875 -4.984375 L 1.8125 0 Z M 0.5625 0 "/></g></g></g><g fill="#e67373" fill-opacity="1"><g transform="translate(117.844797, 216.183751)"><g><path d="M 0.5625 0 L 2.65625 -10.5 L 3.90625 -10.5 L 1.8125 0 Z M 0.5625 0 "/></g></g></g><g fill="#e67373" fill-opacity="1"><g transform="translate(122.755833, 216.183751)"><g><path d="M 0.5625 0 L 2.65625 -10.5 L 3.90625 -10.5 L 6.296875 -3.78125 L 6.96875 -1.578125 L 7.046875 -1.578125 C 7.109375 -2.109375 7.171875 -2.660156 7.234375 -3.234375 C 7.304688 -3.816406 7.398438 -4.378906 7.515625 -4.921875 L 8.625 -10.5 L 9.828125 -10.5 L 7.734375 0 L 6.5 0 L 4.125 -6.703125 L 3.4375 -8.953125 L 3.375 -8.953125 C 3.3125 -8.410156 3.238281 -7.859375 3.15625 -7.296875 C 3.082031 -6.734375 2.988281 -6.179688 2.875 -5.640625 L 1.765625 0 Z M 0.5625 0 "/></g></g></g><g fill="#e67373" fill-opacity="1"><g transform="translate(133.537457, 216.183751)"><g><path d="M 0.5625 0 L 2.65625 -10.5 L 8.453125 -10.5 L 8.234375 -9.453125 L 3.6875 -9.453125 L 3.015625 -6.046875 L 6.859375 -6.046875 L 6.640625 -4.984375 L 2.8125 -4.984375 L 2 -1.0625 L 6.703125 -1.0625 L 6.484375 0 Z M 0.5625 0 "/></g></g></g><path stroke-linecap="butt" transform="matrix(0.75, 0, 0, 0.75, 94.966837, 198.976643)" fill="none" stroke-linejoin="miter" d="M 8.080677 22.255103 C 7.117135 22.255103 6.236927 22.051978 5.44526 21.650936 C 4.658801 21.244686 3.981718 20.619686 3.41401 19.781144 L 4.627551 18.864477 C 5.03901 19.489477 5.544218 19.979061 6.148385 20.328019 C 6.75776 20.676977 7.450468 20.848852 8.231718 20.848852 C 8.658802 20.848852 9.059843 20.786352 9.424427 20.656144 C 9.799427 20.525936 10.111927 20.348852 10.372343 20.124894 C 10.637968 19.895727 10.846302 19.619686 11.002552 19.291561 C 11.158802 18.963436 11.236927 18.604061 11.236927 18.203019 C 11.236927 17.687394 11.080677 17.260311 10.75776 16.911352 C 10.440052 16.567602 10.018177 16.22906 9.492135 15.900935 L 7.867135 14.91656 C 7.273385 14.551977 6.762968 14.109269 6.341093 13.598852 C 5.924427 13.088435 5.716093 12.432185 5.716093 11.630102 C 5.716093 11.109268 5.825468 10.609268 6.044218 10.140518 C 6.262968 9.671768 6.565052 9.255102 6.950468 8.900935 C 7.335885 8.546768 7.794218 8.270727 8.325468 8.062393 C 8.861927 7.85406 9.440052 7.749893 10.065052 7.749893 C 10.908802 7.749893 11.669219 7.937393 12.346302 8.307185 C 13.033802 8.676977 13.596302 9.145727 14.033802 9.713435 L 12.94526 10.692602 C 12.580677 10.265518 12.148385 9.906143 11.653594 9.614477 C 11.16401 9.32281 10.596302 9.176977 9.940052 9.176977 C 9.544218 9.176977 9.184843 9.244685 8.872343 9.369685 C 8.559843 9.499893 8.294218 9.671768 8.07026 9.88531 C 7.85151 10.098852 7.684843 10.338435 7.57026 10.609268 C 7.455677 10.880102 7.398385 11.156143 7.398385 11.437394 C 7.398385 11.97906 7.575468 12.421769 7.919218 12.755102 C 8.273385 13.088435 8.700468 13.411352 9.210885 13.723852 L 10.835885 14.682185 C 11.518177 15.083227 12.03901 15.536352 12.398385 16.04156 C 12.762969 16.546769 12.94526 17.187394 12.94526 17.968644 C 12.94526 18.593644 12.825469 19.171769 12.580677 19.697811 C 12.341094 20.223852 12.00776 20.671769 11.580677 21.051977 C 11.153594 21.426977 10.643177 21.723853 10.044218 21.937394 C 9.450468 22.150936 8.794218 22.255103 8.080677 22.255103 Z M 15.867135 21.999894 L 18.664011 8.005102 L 20.325469 8.005102 L 19.132761 13.91656 L 25.445261 13.91656 L 26.643178 8.005102 L 28.278595 8.005102 L 25.492136 21.999894 L 23.825469 21.999894 L 25.169219 15.343644 L 18.856719 15.343644 L 17.533802 21.999894 Z M 30.304636 21.999894 L 33.101512 8.005102 L 34.76297 8.005102 L 31.971303 21.999894 Z M 36.851512 21.999894 L 39.648387 8.005102 L 41.309845 8.005102 L 44.512971 16.963436 L 45.408804 19.885311 L 45.492137 19.885311 C 45.580679 19.192602 45.669221 18.458227 45.757762 17.682186 C 45.851512 16.906144 45.976512 16.156144 46.132762 15.426977 L 47.606721 8.005102 L 49.205679 8.005102 L 46.408804 21.999894 L 44.768179 21.999894 L 41.611929 13.062394 L 40.695262 10.051977 L 40.60672 10.051977 C 40.523387 10.781143 40.429637 11.520727 40.320262 12.270727 C 40.216095 13.025935 40.091095 13.76031 39.945262 14.468644 L 38.455679 21.999894 Z M 51.231721 21.999894 L 54.023388 8.005102 L 61.747347 8.005102 L 61.466097 9.390518 L 55.387971 9.390518 L 54.492138 13.937394 L 59.632763 13.937394 L 59.335888 15.343644 L 54.23693 15.343644 L 53.148388 20.593644 L 59.419222 20.593644 L 59.122347 21.999894 Z M 51.231721 21.999894 " stroke="#cc0000" stroke-width="0.800003" stroke-opacity="1" stroke-miterlimit="4"/><g fill="#e67373" fill-opacity="1"><g transform="translate(142.466912, 216.183751)"><g/></g></g><g fill="#cc0000" fill-opacity="1"><g transform="translate(152.08804, 215.476642)"><g><path d="M 2.59375 0 L 0.375 -10.5 L 1.75 -10.5 L 2.84375 -4.78125 C 2.9375 -4.207031 3.035156 -3.640625 3.140625 -3.078125 C 3.253906 -2.523438 3.359375 -1.960938 3.453125 -1.390625 L 3.515625 -1.390625 C 3.640625 -1.960938 3.765625 -2.53125 3.890625 -3.09375 C 4.015625 -3.65625 4.132812 -4.21875 4.25 -4.78125 L 5.71875 -10.5 L 6.921875 -10.5 L 8.390625 -4.78125 C 8.515625 -4.226562 8.640625 -3.664062 8.765625 -3.09375 C 8.890625 -2.53125 9.019531 -1.960938 9.15625 -1.390625 L 9.21875 -1.390625 C 9.3125 -1.960938 9.40625 -2.53125 9.5 -3.09375 C 9.59375 -3.65625 9.695312 -4.21875 9.8125 -4.78125 L 10.90625 -10.5 L 12.1875 -10.5 L 10.015625 0 L 8.421875 0 L 6.828125 -6.3125 C 6.734375 -6.71875 6.644531 -7.113281 6.5625 -7.5 C 6.488281 -7.894531 6.40625 -8.296875 6.3125 -8.703125 L 6.25 -8.703125 C 6.164062 -8.296875 6.078125 -7.894531 5.984375 -7.5 C 5.898438 -7.113281 5.816406 -6.71875 5.734375 -6.3125 L 4.171875 0 Z M 2.59375 0 "/></g></g></g><g fill="#cc0000" fill-opacity="1"><g transform="translate(165.541024, 215.476642)"><g><path d="M 1.4375 0 L 1.4375 -10.5 L 2.765625 -10.5 L 2.765625 0 Z M 1.4375 0 "/></g></g></g><g fill="#cc0000" fill-opacity="1"><g transform="translate(170.628011, 215.476642)"><g><path d="M 3.609375 0 L 3.609375 -9.375 L 0.453125 -9.375 L 0.453125 -10.5 L 8.125 -10.5 L 8.125 -9.375 L 4.953125 -9.375 L 4.953125 0 Z M 3.609375 0 "/></g></g></g><g fill="#cc0000" fill-opacity="1"><g transform="translate(180.081949, 215.476642)"><g><path d="M 1.4375 0 L 1.4375 -10.5 L 2.765625 -10.5 L 2.765625 -6.09375 L 7.640625 -6.09375 L 7.640625 -10.5 L 8.984375 -10.5 L 8.984375 0 L 7.640625 0 L 7.640625 -4.9375 L 2.765625 -4.9375 L 2.765625 0 Z M 1.4375 0 "/></g></g></g><g fill="#cc0000" fill-opacity="1"><g transform="translate(191.391444, 215.476642)"><g/></g></g><g fill="#cc0000" fill-opacity="1"><g transform="translate(195.470675, 215.476642)"><g><path d="M 1.4375 0 L 1.4375 -10.5 L 4.4375 -10.5 C 5.019531 -10.5 5.550781 -10.441406 6.03125 -10.328125 C 6.519531 -10.222656 6.9375 -10.050781 7.28125 -9.8125 C 7.625 -9.570312 7.890625 -9.253906 8.078125 -8.859375 C 8.273438 -8.460938 8.375 -7.976562 8.375 -7.40625 C 8.375 -6.851562 8.28125 -6.375 8.09375 -5.96875 C 7.90625 -5.5625 7.640625 -5.222656 7.296875 -4.953125 C 6.953125 -4.691406 6.539062 -4.492188 6.0625 -4.359375 C 5.59375 -4.222656 5.070312 -4.15625 4.5 -4.15625 L 2.765625 -4.15625 L 2.765625 0 Z M 2.765625 -5.25 L 4.34375 -5.25 C 5.257812 -5.25 5.9375 -5.421875 6.375 -5.765625 C 6.820312 -6.109375 7.046875 -6.65625 7.046875 -7.40625 C 7.046875 -8.164062 6.8125 -8.691406 6.34375 -8.984375 C 5.875 -9.273438 5.179688 -9.421875 4.265625 -9.421875 L 2.765625 -9.421875 Z M 2.765625 -5.25 "/></g></g></g><g fill="#cc0000" fill-opacity="1"><g transform="translate(205.404498, 215.476642)"><g><path d="M 1.4375 0 L 1.4375 -10.5 L 4.71875 -10.5 C 5.25 -10.5 5.738281 -10.445312 6.1875 -10.34375 C 6.644531 -10.238281 7.035156 -10.066406 7.359375 -9.828125 C 7.691406 -9.597656 7.945312 -9.296875 8.125 -8.921875 C 8.3125 -8.554688 8.40625 -8.097656 8.40625 -7.546875 C 8.40625 -6.722656 8.191406 -6.066406 7.765625 -5.578125 C 7.335938 -5.085938 6.757812 -4.753906 6.03125 -4.578125 L 8.703125 0 L 7.203125 0 L 4.671875 -4.4375 L 2.765625 -4.4375 L 2.765625 0 Z M 2.765625 -5.515625 L 4.53125 -5.515625 C 5.351562 -5.515625 5.984375 -5.679688 6.421875 -6.015625 C 6.859375 -6.359375 7.078125 -6.867188 7.078125 -7.546875 C 7.078125 -8.242188 6.859375 -8.726562 6.421875 -9 C 5.984375 -9.28125 5.351562 -9.421875 4.53125 -9.421875 L 2.765625 -9.421875 Z M 2.765625 -5.515625 "/></g></g></g><g fill="#cc0000" fill-opacity="1"><g transform="translate(215.386321, 215.476642)"><g><path d="M 1.4375 0 L 1.4375 -10.5 L 7.484375 -10.5 L 7.484375 -9.375 L 2.765625 -9.375 L 2.765625 -6.078125 L 6.75 -6.078125 L 6.75 -4.9375 L 2.765625 -4.9375 L 2.765625 -1.140625 L 7.640625 -1.140625 L 7.640625 0 Z M 1.4375 0 "/></g></g></g><g fill="#cc0000" fill-opacity="1"><g transform="translate(224.696295, 215.476642)"><g><path d="M 5.40625 0.1875 C 4.75 0.1875 4.140625 0.0664062 3.578125 -0.171875 C 3.023438 -0.421875 2.539062 -0.773438 2.125 -1.234375 C 1.71875 -1.703125 1.398438 -2.273438 1.171875 -2.953125 C 0.941406 -3.628906 0.828125 -4.394531 0.828125 -5.25 C 0.828125 -6.09375 0.941406 -6.847656 1.171875 -7.515625 C 1.410156 -8.191406 1.738281 -8.765625 2.15625 -9.234375 C 2.570312 -9.703125 3.0625 -10.0625 3.625 -10.3125 C 4.195312 -10.5625 4.816406 -10.6875 5.484375 -10.6875 C 6.128906 -10.6875 6.691406 -10.554688 7.171875 -10.296875 C 7.660156 -10.035156 8.0625 -9.734375 8.375 -9.390625 L 7.640625 -8.53125 C 7.367188 -8.820312 7.054688 -9.054688 6.703125 -9.234375 C 6.347656 -9.421875 5.945312 -9.515625 5.5 -9.515625 C 5 -9.515625 4.546875 -9.414062 4.140625 -9.21875 C 3.734375 -9.019531 3.382812 -8.738281 3.09375 -8.375 C 2.8125 -8.007812 2.59375 -7.5625 2.4375 -7.03125 C 2.28125 -6.507812 2.203125 -5.925781 2.203125 -5.28125 C 2.203125 -4.613281 2.28125 -4.015625 2.4375 -3.484375 C 2.59375 -2.960938 2.804688 -2.515625 3.078125 -2.140625 C 3.359375 -1.765625 3.695312 -1.472656 4.09375 -1.265625 C 4.5 -1.066406 4.953125 -0.96875 5.453125 -0.96875 C 5.960938 -0.96875 6.410156 -1.070312 6.796875 -1.28125 C 7.179688 -1.488281 7.546875 -1.78125 7.890625 -2.15625 L 8.625 -1.328125 C 8.207031 -0.847656 7.738281 -0.472656 7.21875 -0.203125 C 6.695312 0.0546875 6.09375 0.1875 5.40625 0.1875 Z M 5.40625 0.1875 "/></g></g></g><g fill="#cc0000" fill-opacity="1"><g transform="translate(234.710103, 215.476642)"><g><path d="M 1.4375 0 L 1.4375 -10.5 L 2.765625 -10.5 L 2.765625 0 Z M 1.4375 0 "/></g></g></g><g fill="#cc0000" fill-opacity="1"><g transform="translate(239.797093, 215.476642)"><g><path d="M 4.359375 0.1875 C 3.617188 0.1875 2.929688 0.0507812 2.296875 -0.21875 C 1.671875 -0.5 1.128906 -0.878906 0.671875 -1.359375 L 1.46875 -2.28125 C 1.84375 -1.894531 2.28125 -1.578125 2.78125 -1.328125 C 3.289062 -1.085938 3.820312 -0.96875 4.375 -0.96875 C 5.0625 -0.96875 5.597656 -1.125 5.984375 -1.4375 C 6.367188 -1.757812 6.5625 -2.175781 6.5625 -2.6875 C 6.5625 -2.957031 6.515625 -3.179688 6.421875 -3.359375 C 6.328125 -3.546875 6.203125 -3.707031 6.046875 -3.84375 C 5.898438 -3.976562 5.71875 -4.097656 5.5 -4.203125 C 5.289062 -4.316406 5.0625 -4.429688 4.8125 -4.546875 L 3.3125 -5.203125 C 3.0625 -5.304688 2.804688 -5.429688 2.546875 -5.578125 C 2.296875 -5.734375 2.066406 -5.914062 1.859375 -6.125 C 1.660156 -6.34375 1.5 -6.597656 1.375 -6.890625 C 1.25 -7.179688 1.1875 -7.519531 1.1875 -7.90625 C 1.1875 -8.300781 1.269531 -8.664062 1.4375 -9 C 1.601562 -9.34375 1.832031 -9.640625 2.125 -9.890625 C 2.414062 -10.140625 2.757812 -10.332031 3.15625 -10.46875 C 3.5625 -10.613281 4.003906 -10.6875 4.484375 -10.6875 C 5.109375 -10.6875 5.6875 -10.566406 6.21875 -10.328125 C 6.757812 -10.085938 7.210938 -9.773438 7.578125 -9.390625 L 6.859375 -8.53125 C 6.546875 -8.832031 6.191406 -9.070312 5.796875 -9.25 C 5.410156 -9.425781 4.972656 -9.515625 4.484375 -9.515625 C 3.890625 -9.515625 3.414062 -9.378906 3.0625 -9.109375 C 2.707031 -8.835938 2.53125 -8.460938 2.53125 -7.984375 C 2.53125 -7.722656 2.578125 -7.503906 2.671875 -7.328125 C 2.773438 -7.160156 2.910156 -7.007812 3.078125 -6.875 C 3.253906 -6.738281 3.441406 -6.617188 3.640625 -6.515625 C 3.847656 -6.421875 4.054688 -6.328125 4.265625 -6.234375 L 5.765625 -5.59375 C 6.054688 -5.46875 6.335938 -5.320312 6.609375 -5.15625 C 6.878906 -4.988281 7.109375 -4.796875 7.296875 -4.578125 C 7.484375 -4.359375 7.632812 -4.101562 7.75 -3.8125 C 7.863281 -3.519531 7.921875 -3.179688 7.921875 -2.796875 C 7.921875 -2.378906 7.835938 -1.988281 7.671875 -1.625 C 7.503906 -1.269531 7.265625 -0.953125 6.953125 -0.671875 C 6.648438 -0.398438 6.28125 -0.1875 5.84375 -0.03125 C 5.40625 0.113281 4.910156 0.1875 4.359375 0.1875 Z M 4.359375 0.1875 "/></g></g></g><g fill="#cc0000" fill-opacity="1"><g transform="translate(249.219042, 215.476642)"><g><path d="M 1.4375 0 L 1.4375 -10.5 L 2.765625 -10.5 L 2.765625 0 Z M 1.4375 0 "/></g></g></g><g fill="#cc0000" fill-opacity="1"><g transform="translate(254.306032, 215.476642)"><g><path d="M 5.3125 0.1875 C 4.644531 0.1875 4.035156 0.0625 3.484375 -0.1875 C 2.941406 -0.445312 2.472656 -0.8125 2.078125 -1.28125 C 1.679688 -1.757812 1.375 -2.335938 1.15625 -3.015625 C 0.9375 -3.691406 0.828125 -4.453125 0.828125 -5.296875 C 0.828125 -6.140625 0.9375 -6.894531 1.15625 -7.5625 C 1.375 -8.226562 1.679688 -8.789062 2.078125 -9.25 C 2.472656 -9.71875 2.941406 -10.070312 3.484375 -10.3125 C 4.035156 -10.5625 4.644531 -10.6875 5.3125 -10.6875 C 5.96875 -10.6875 6.570312 -10.5625 7.125 -10.3125 C 7.675781 -10.0625 8.148438 -9.703125 8.546875 -9.234375 C 8.953125 -8.773438 9.265625 -8.210938 9.484375 -7.546875 C 9.703125 -6.878906 9.8125 -6.128906 9.8125 -5.296875 C 9.8125 -4.453125 9.703125 -3.691406 9.484375 -3.015625 C 9.265625 -2.335938 8.953125 -1.757812 8.546875 -1.28125 C 8.148438 -0.8125 7.675781 -0.445312 7.125 -0.1875 C 6.570312 0.0625 5.96875 0.1875 5.3125 0.1875 Z M 5.3125 -0.96875 C 5.78125 -0.96875 6.203125 -1.066406 6.578125 -1.265625 C 6.960938 -1.472656 7.289062 -1.765625 7.5625 -2.140625 C 7.832031 -2.523438 8.039062 -2.976562 8.1875 -3.5 C 8.34375 -4.03125 8.421875 -4.628906 8.421875 -5.296875 C 8.421875 -5.941406 8.34375 -6.523438 8.1875 -7.046875 C 8.039062 -7.578125 7.832031 -8.019531 7.5625 -8.375 C 7.289062 -8.738281 6.960938 -9.019531 6.578125 -9.21875 C 6.203125 -9.414062 5.78125 -9.515625 5.3125 -9.515625 C 4.84375 -9.515625 4.414062 -9.414062 4.03125 -9.21875 C 3.65625 -9.019531 3.332031 -8.738281 3.0625 -8.375 C 2.789062 -8.019531 2.578125 -7.578125 2.421875 -7.046875 C 2.273438 -6.523438 2.203125 -5.941406 2.203125 -5.296875 C 2.203125 -4.628906 2.273438 -4.03125 2.421875 -3.5 C 2.578125 -2.976562 2.789062 -2.523438 3.0625 -2.140625 C 3.332031 -1.765625 3.65625 -1.472656 4.03125 -1.265625 C 4.414062 -1.066406 4.84375 -0.96875 5.3125 -0.96875 Z M 5.3125 -0.96875 "/></g></g></g><g fill="#cc0000" fill-opacity="1"><g transform="translate(265.807481, 215.476642)"><g><path d="M 1.4375 0 L 1.4375 -10.5 L 2.8125 -10.5 L 6.609375 -3.90625 L 7.75 -1.734375 L 7.8125 -1.734375 C 7.78125 -2.265625 7.742188 -2.8125 7.703125 -3.375 C 7.660156 -3.945312 7.640625 -4.515625 7.640625 -5.078125 L 7.640625 -10.5 L 8.90625 -10.5 L 8.90625 0 L 7.53125 0 L 3.734375 -6.609375 L 2.59375 -8.765625 L 2.53125 -8.765625 C 2.570312 -8.234375 2.609375 -7.691406 2.640625 -7.140625 C 2.679688 -6.585938 2.703125 -6.035156 2.703125 -5.484375 L 2.703125 0 Z M 1.4375 0 "/></g></g></g></svg>